<?xml version="1.0" standalone="no"?><!DOCTYPE svg PUBLIC "-//W3C//DTD SVG 1.1//EN" "http://www.w3.org/Graphics/SVG/1.1/DTD/svg11.dtd"><svg t="1639970697609" class="icon" viewBox="0 0 1024 1024" version="1.1" xmlns="http://www.w3.org/2000/svg" p-id="4931" xmlns:xlink="http://www.w3.org/1999/xlink" width="200" height="200"><defs><style type="text/css"></style></defs><path d="M333.4 99.117l0.419 0.634 167.148 260.297L674.885 99.315c9.162-13.737 27.732-17.449 41.477-8.29 13.532 9.016 17.341 27.148 8.709 40.816l-0.414 0.637L550.54 393.51h212.981c13.237 0 23.967 13.384 23.967 29.894 0 16.273-10.426 29.51-23.401 29.885l-0.566 0.008-227.103-0.001v198.029l261.502-0.274c13.287-0.014 24.068 13.22 24.079 29.56 0.011 16.106-10.445 29.216-23.47 29.601l-0.568 0.009-261.543 0.274v228.613c0 16.51-13.39 29.893-29.91 29.893-16.282 0-29.525-13.004-29.9-29.187l-0.009-0.706v-228.55l-265.521 0.28c-13.287 0.013-24.068-13.22-24.079-29.56-0.011-16.106 10.445-29.217 23.47-29.602l0.568-0.008 265.562-0.28V453.295H254.68c-13.236 0-23.966-13.383-23.966-29.892 0-16.274 10.426-29.51 23.401-29.885l0.566-0.008 196.693-0.001-167.898-261.466c-8.922-13.894-4.885-32.387 9.017-41.304 13.688-8.78 31.836-5.003 40.907 8.378z" fill="#333333" p-id="4932"></path></svg>